<svg xmlns="http://www.w3.org/2000/svg" viewBox="0 0 512 512" role="img" aria-labelledby="title desc">
  <title id="title">Nix snowflake logo</title>
  <desc id="desc">A white angular Nix-style snowflake mark centered in a blue circle.</desc>
  <circle cx="256" cy="256" r="238" fill="#5667f5" />
  <g fill="#fff">
    <polygon points="174.157 260.615 276.467 437.841 229.45 438.282 202.135 390.668 174.626 438.027 151.265 438.018 139.3 417.347 178.492 349.956 150.67 301.541" />
    <polygon points="211.082 187.43 108.755 364.646 84.864 324.148 112.442 276.686 57.673 276.542 46 256.306 57.919 235.608 135.878 235.854 163.895 187.552" />
    <polygon points="219.075 329.185 423.712 329.195 400.585 370.134 345.693 369.982 372.953 417.486 361.265 437.713 337.38 437.739 298.614 370.102 242.775 369.989" />
    <polygon points="337.843 251.385 235.533 74.159 282.55 73.718 309.865 121.332 337.374 73.973 360.735 73.982 372.7 94.653 333.508 162.044 361.33 210.459" />
    <polygon points="292.925 182.815 88.288 182.805 111.415 141.866 166.307 142.018 139.047 94.514 150.735 74.287 174.62 74.261 213.386 141.898 269.225 142.011" />
    <polygon points="300.918 324.57 403.245 147.354 427.136 187.852 399.558 235.314 454.327 235.458 466 255.694 454.081 276.392 376.122 276.146 348.105 324.448" />
  </g>
</svg>
